<?xml version="1.0" encoding="utf-8"?>
<!-- Generator: Adobe Illustrator 27.0.0, SVG Export Plug-In . SVG Version: 6.00 Build 0)  -->
<svg version="1.1" id="Layer_1" xmlns="http://www.w3.org/2000/svg" xmlns:xlink="http://www.w3.org/1999/xlink" x="0px" y="0px"
	 viewBox="0 0 1757 305" style="enable-background:new 0 0 1757 305;" xml:space="preserve">
<style type="text/css">
	.st0{opacity:9.000000e-02;clip-path:url(#SVGID_00000052062754372561632010000009238933178491023537_);}
	.st1{fill-opacity:0;}
	.st2{opacity:4.545455e-02;enable-background:new    ;}
	.st3{opacity:9.090909e-02;enable-background:new    ;}
	.st4{opacity:0.1364;enable-background:new    ;}
	.st5{opacity:0.1818;enable-background:new    ;}
	.st6{opacity:0.2273;enable-background:new    ;}
	.st7{opacity:0.2727;enable-background:new    ;}
	.st8{opacity:0.3182;enable-background:new    ;}
	.st9{opacity:0.3636;enable-background:new    ;}
	.st10{opacity:0.4091;enable-background:new    ;}
	.st11{opacity:0.4545;enable-background:new    ;}
	.st12{opacity:0.5;enable-background:new    ;}
	.st13{opacity:0.5455;enable-background:new    ;}
	.st14{opacity:0.5909;enable-background:new    ;}
	.st15{opacity:0.6364;enable-background:new    ;}
	.st16{opacity:0.6818;enable-background:new    ;}
	.st17{opacity:0.7273;enable-background:new    ;}
	.st18{opacity:0.7727;enable-background:new    ;}
	.st19{opacity:0.8182;enable-background:new    ;}
	.st20{opacity:0.8636;enable-background:new    ;}
	.st21{opacity:0.9091;enable-background:new    ;}
	.st22{opacity:0.9545;enable-background:new    ;}
	.st23{fill:#FFFFFF;}
</style>
<g>
	<g>
		<defs>
			<rect id="SVGID_1_" width="1757" height="306.2"/>
		</defs>
		<clipPath id="SVGID_00000002367134059790297140000013967893588377988267_">
			<use xlink:href="#SVGID_1_"  style="overflow:visible;"/>
		</clipPath>
		<g style="opacity:9.000000e-02;clip-path:url(#SVGID_00000002367134059790297140000013967893588377988267_);">
			<path id="_x30__00000146488821136080645350000008168366348006876060_" class="st1" d="M0-1.2c0,0,340.9,92.1,878.5,92.1
				S1757-1.2,1757-1.2v286.6H0V-1.2z"/>
			<path class="st2" d="M0-0.3c0,0,340.9,92.1,878.5,92.1S1757-0.3,1757-0.3v286.6H0V-0.3z"/>
			<path class="st3" d="M0,0.7c0,0,340.9,92.1,878.5,92.1S1757,0.7,1757,0.7v286.6H0V0.7z"/>
			<path class="st4" d="M0,1.6c0,0,340.9,92.1,878.5,92.1S1757,1.6,1757,1.6v286.6H0V1.6z"/>
			<path class="st5" d="M0,2.6c0,0,340.9,92.1,878.5,92.1S1757,2.6,1757,2.6v286.6H0V2.6z"/>
			<path class="st6" d="M0,3.5c0,0,340.9,92.1,878.5,92.1S1757,3.5,1757,3.5v286.6H0V3.5z"/>
			<path class="st7" d="M0,4.4c0,0,340.9,92.1,878.5,92.1S1757,4.4,1757,4.4V291H0V4.4z"/>
			<path class="st8" d="M0,5.3c0,0,340.9,92.1,878.5,92.1S1757,5.3,1757,5.3V292H0V5.3z"/>
			<path class="st9" d="M0,6.3c0,0,340.9,92.1,878.5,92.1S1757,6.3,1757,6.3v286.6H0V6.3z"/>
			<path class="st10" d="M0,7.3c0,0,340.9,92.1,878.5,92.1S1757,7.3,1757,7.3v286.6H0V7.3z"/>
			<path class="st11" d="M0,8.2c0,0,340.9,92.1,878.5,92.1S1757,8.2,1757,8.2v286.6H0V8.2z"/>
			<path class="st12" d="M0,9.2c0,0,340.9,92.1,878.5,92.1S1757,9.2,1757,9.2v286.6H0V9.2z"/>
			<path class="st13" d="M0,10.1c0,0,340.9,92.1,878.5,92.1S1757,10.1,1757,10.1v286.6H0V10.1z"/>
			<path class="st14" d="M0,11.1c0,0,340.9,92.1,878.5,92.1S1757,11.1,1757,11.1v286.6H0V11.1z"/>
			<path class="st15" d="M0,12c0,0,340.9,92.1,878.5,92.1S1757,12,1757,12v286.6H0V12z"/>
			<path class="st16" d="M0,13c0,0,340.9,92.1,878.5,92.1S1757,13,1757,13v286.6H0V13z"/>
			<path class="st17" d="M0,13.9c0,0,340.9,92.1,878.5,92.1S1757,13.9,1757,13.9v286.6H0V13.9z"/>
			<path class="st18" d="M0,14.8c0,0,340.9,92.1,878.5,92.1S1757,14.8,1757,14.8v286.6H0V14.8z"/>
			<path class="st19" d="M0,15.7c0,0,340.9,92.1,878.5,92.1S1757,15.7,1757,15.7v286.6H0V15.7z"/>
			<path class="st20" d="M0,16.7c0,0,340.9,92.1,878.5,92.1S1757,16.7,1757,16.7v286.6H0V16.7z"/>
			<path class="st21" d="M0,17.7c0,0,340.9,92.1,878.5,92.1S1757,17.7,1757,17.7v286.6H0V17.7z"/>
			<path class="st22" d="M0,18.6c0,0,340.9,92.1,878.5,92.1S1757,18.6,1757,18.6v286.6H0V18.6z"/>
			<path id="_x31_00_00000146477864472396926960000005351025257288550078_" d="M0,19.6c0,0,340.9,92.1,878.5,92.1
				S1757,19.6,1757,19.6v286.6H0V19.6z"/>
		</g>
	</g>
</g>
<path class="st23" d="M0,19.6c0,0,340.9,92.1,878.5,92.1S1757,19.6,1757,19.6v286.6H0V19.6z"/>
</svg>
